<svg width="105" height="105" viewBox="0 0 105 105" fill="none" xmlns="http://www.w3.org/2000/svg">
<g clip-path="url(#clip0_167_30)">
<path d="M55 5C50.0812 5 46.925 8.7 45.175 12.1938C43.4436 15.802 42.5302 19.748 42.5 23.75V46.8187L30 53.0687V51.875C30 51.0462 29.6708 50.2513 29.0847 49.6653C28.4987 49.0792 27.7038 48.75 26.875 48.75H20.625C19.7962 48.75 19.0013 49.0792 18.4153 49.6653C17.8292 50.2513 17.5 51.0462 17.5 51.875V59.3187L10.1875 62.975C8.62896 63.7531 7.31802 64.95 6.40174 66.4315C5.48545 67.913 5.00006 69.6205 5 71.3625L5 80C5.00021 80.4536 5.09917 80.9018 5.29002 81.3133C5.48086 81.7248 5.75901 82.0899 6.10514 82.3831C6.45128 82.6763 6.85709 82.8906 7.2944 83.0112C7.73171 83.1317 8.19002 83.1556 8.6375 83.0813L18.8313 81.3812L20.7875 87.2375C20.9959 87.8582 21.394 88.3977 21.9255 88.78C22.4571 89.1623 23.0953 89.3679 23.75 89.3679C24.4047 89.3679 25.0429 89.1623 25.5745 88.78C26.106 88.3977 26.5041 87.8582 26.7125 87.2375L29.2437 79.65L43.0563 77.3438L45.4 91.425L37.1625 99.6625C36.7243 100.1 36.4258 100.657 36.3048 101.264C36.1837 101.871 36.2456 102.5 36.4826 103.072C36.7196 103.643 37.121 104.132 37.6359 104.475C38.1508 104.818 38.7561 105.001 39.375 105H70.625C71.2439 105.001 71.8492 104.818 72.3641 104.475C72.879 104.132 73.2804 103.643 73.5174 103.072C73.7544 102.5 73.8163 101.871 73.6952 101.264C73.5742 100.657 73.2757 100.1 72.8375 99.6625L64.6 91.425L66.9438 77.3438L80.7562 79.65L83.2875 87.2375C83.4959 87.8582 83.894 88.3977 84.4255 88.78C84.9571 89.1623 85.5953 89.3679 86.25 89.3679C86.9047 89.3679 87.5429 89.1623 88.0745 88.78C88.606 88.3977 89.0041 87.8582 89.2125 87.2375L91.1687 81.3812L101.356 83.0813C101.804 83.1567 102.263 83.1335 102.701 83.0134C103.139 82.8933 103.546 82.6791 103.893 82.3858C104.24 82.0925 104.518 81.7271 104.71 81.3151C104.901 80.903 105 80.4542 105 80V71.3625C105 69.6205 104.515 67.913 103.598 66.4315C102.682 64.95 101.371 63.7531 99.8125 62.975L92.5 59.3187V51.875C92.5 51.0462 92.1708 50.2513 91.5847 49.6653C90.9987 49.0792 90.2038 48.75 89.375 48.75H83.125C82.2962 48.75 81.5013 49.0792 80.9153 49.6653C80.3292 50.2513 80 51.0462 80 51.875V53.0687L67.5 46.8187V23.75C67.5 20.2 66.625 15.8063 64.825 12.1938C63.075 8.69375 59.9188 5 55 5ZM48.75 23.75C48.75 21.05 49.4375 17.6312 50.7625 14.9937C52.1375 12.2438 53.6688 11.25 55 11.25C56.3312 11.25 57.8625 12.2375 59.2375 14.9937C60.5563 17.625 61.25 21.0562 61.25 23.75V48.75C61.25 49.3299 61.4114 49.8983 61.716 50.3917C62.0207 50.8851 62.4566 51.284 62.975 51.5438L97.025 68.5687C97.5434 68.8285 97.9793 69.2274 98.284 69.7208C98.5886 70.2142 98.75 70.7826 98.75 71.3625V76.3125L64.8875 70.6687C64.0713 70.5331 63.2346 70.7267 62.5609 71.2071C61.8872 71.6874 61.4315 72.4154 61.2938 73.2312L58.1688 91.9812C58.086 92.4733 58.1222 92.978 58.2744 93.4532C58.4267 93.9284 58.6905 94.3602 59.0438 94.7125L63.0813 98.75H46.9187L50.9625 94.7125C51.3149 94.3608 51.5781 93.9301 51.7303 93.4561C51.8825 92.9821 51.9193 92.4786 51.8375 91.9875L48.7125 73.2375C48.6451 72.8323 48.4984 72.4444 48.2809 72.096C48.0634 71.7475 47.7794 71.4454 47.445 71.2068C47.1107 70.9682 46.7326 70.7979 46.3323 70.7056C45.9321 70.6133 45.5176 70.6007 45.1125 70.6687L11.25 76.3125V71.3625C11.25 70.7826 11.4114 70.2142 11.716 69.7208C12.0207 69.2274 12.4566 68.8285 12.975 68.5687L47.025 51.5438C47.5434 51.284 47.9793 50.8851 48.284 50.3917C48.5886 49.8983 48.75 49.3299 48.75 48.75V23.75Z" fill="#055422"/>
</g>
<defs>
<clipPath id="clip0_167_30">
<rect width="100" height="100" fill="white" transform="translate(5 5)"/>
</clipPath>
</defs>
</svg>
