<svg width="87" height="87" viewBox="0 0 87 87" fill="none" xmlns="http://www.w3.org/2000/svg">
<g clip-path="url(#clip0_167_5)">
<path d="M27.1875 35.3438C27.1875 34.6227 26.9011 33.9312 26.3912 33.4213C25.8813 32.9114 25.1898 32.625 24.4688 32.625H19.0312C18.3102 32.625 17.6187 32.9114 17.1088 33.4213C16.5989 33.9312 16.3125 34.6227 16.3125 35.3438V40.7812C16.3125 41.5023 16.5989 42.1938 17.1088 42.7037C17.6187 43.2136 18.3102 43.5 19.0312 43.5H24.4688C25.1898 43.5 25.8813 43.2136 26.3912 42.7037C26.9011 42.1938 27.1875 41.5023 27.1875 40.7812V35.3438ZM43.5 35.3438C43.5 34.6227 43.2136 33.9312 42.7037 33.4213C42.1938 32.9114 41.5023 32.625 40.7812 32.625H35.3438C34.6227 32.625 33.9312 32.9114 33.4213 33.4213C32.9114 33.9312 32.625 34.6227 32.625 35.3438V40.7812C32.625 41.5023 32.9114 42.1938 33.4213 42.7037C33.9312 43.2136 34.6227 43.5 35.3438 43.5H40.7812C41.5023 43.5 42.1938 43.2136 42.7037 42.7037C43.2136 42.1938 43.5 41.5023 43.5 40.7812V35.3438ZM70.6875 51.6562C70.6875 50.9352 70.4011 50.2437 69.8912 49.7338C69.3813 49.2239 68.6898 48.9375 67.9688 48.9375H62.5312C61.8102 48.9375 61.1187 49.2239 60.6088 49.7338C60.0989 50.2437 59.8125 50.9352 59.8125 51.6562V57.0938C59.8125 57.8148 60.0989 58.5063 60.6088 59.0162C61.1187 59.5261 61.8102 59.8125 62.5312 59.8125H67.9688C68.6898 59.8125 69.3813 59.5261 69.8912 59.0162C70.4011 58.5063 70.6875 57.8148 70.6875 57.0938V51.6562ZM54.375 51.6562C54.375 50.9352 54.0886 50.2437 53.5787 49.7338C53.0688 49.2239 52.3773 48.9375 51.6562 48.9375H46.2188C45.4977 48.9375 44.8062 49.2239 44.2963 49.7338C43.7864 50.2437 43.5 50.9352 43.5 51.6562V57.0938C43.5 57.8148 43.7864 58.5063 44.2963 59.0162C44.8062 59.5261 45.4977 59.8125 46.2188 59.8125H51.6562C52.3773 59.8125 53.0688 59.5261 53.5787 59.0162C54.0886 58.5063 54.375 57.8148 54.375 57.0938V51.6562Z" fill="#055422"/>
<path d="M67.9688 0C67.2477 0 66.5562 0.286439 66.0463 0.796303C65.5364 1.30617 65.25 1.99769 65.25 2.71875V5.4375H21.75V2.71875C21.75 1.99769 21.4636 1.30617 20.9537 0.796303C20.4438 0.286439 19.7523 0 19.0312 0C18.3102 0 17.6187 0.286439 17.1088 0.796303C16.5989 1.30617 16.3125 1.99769 16.3125 2.71875V5.4375H10.875C7.99077 5.4375 5.22467 6.58326 3.18522 8.62271C1.14576 10.6622 0 13.4283 0 16.3125V76.125C0 79.0092 1.14576 81.7753 3.18522 83.8148C5.22467 85.8542 7.99077 87 10.875 87H76.125C79.0092 87 81.7753 85.8542 83.8148 83.8148C85.8542 81.7753 87 79.0092 87 76.125V16.3125C87 13.4283 85.8542 10.6622 83.8148 8.62271C81.7753 6.58326 79.0092 5.4375 76.125 5.4375H70.6875V2.71875C70.6875 1.99769 70.4011 1.30617 69.8912 0.796303C69.3813 0.286439 68.6898 0 67.9688 0ZM81.5625 21.75V76.125C81.5625 77.5671 80.9896 78.9502 79.9699 79.9699C78.9502 80.9896 77.5671 81.5625 76.125 81.5625H10.875C9.43288 81.5625 8.04984 80.9896 7.03011 79.9699C6.01038 78.9502 5.4375 77.5671 5.4375 76.125V21.75H81.5625Z" fill="#055422"/>
</g>
<defs>
<clipPath id="clip0_167_5">
<rect width="87" height="87" fill="white" transform="matrix(-1 0 0 1 87 0)"/>
</clipPath>
</defs>
</svg>
