<svg width="50" height="50" viewBox="0 0 50 50" fill="none" xmlns="http://www.w3.org/2000/svg">
<path d="M6.25 6.25C4.5924 6.25 3.00269 6.90848 1.83058 8.08058C0.65848 9.25268 0 10.8424 0 12.5L0 37.5312C0.00826101 39.1834 0.670386 40.7651 1.84159 41.9305C3.0128 43.0958 4.5978 43.75 6.25 43.75H23.4375C23.8519 43.75 24.2493 43.5854 24.5424 43.2924C24.8354 42.9993 25 42.6019 25 42.1875C25 41.7731 24.8354 41.3757 24.5424 41.0826C24.2493 40.7896 23.8519 40.625 23.4375 40.625H6.25C5.56212 40.6251 4.89342 40.3982 4.34762 39.9795C3.80182 39.5609 3.40941 38.9738 3.23125 38.3094L20.8562 27.4625L25 29.9469L46.875 16.8219V26.5625C46.875 26.9769 47.0396 27.3743 47.3326 27.6674C47.6257 27.9604 48.0231 28.125 48.4375 28.125C48.8519 28.125 49.2493 27.9604 49.5424 27.6674C49.8354 27.3743 50 26.9769 50 26.5625V12.5C50 10.8424 49.3415 9.25268 48.1694 8.08058C46.9973 6.90848 45.4076 6.25 43.75 6.25H6.25ZM17.8375 25.65L3.125 34.7031V16.8219L17.8375 25.65ZM3.125 13.1781V12.5C3.125 11.6712 3.45424 10.8763 4.04029 10.2903C4.62634 9.70424 5.4212 9.375 6.25 9.375H43.75C44.5788 9.375 45.3737 9.70424 45.9597 10.2903C46.5458 10.8763 46.875 11.6712 46.875 12.5V13.1781L25 26.3031L3.125 13.1781Z" fill="white"/>
<path d="M44.5219 44.5906C47.6781 44.5906 49.4812 41.9125 49.4812 38.2625V37.6063C49.4812 32.5938 45.75 28.125 39.125 28.125H39.0156C32.5625 28.125 28.125 32.375 28.125 38.85V39.5187C28.125 46.3125 32.6187 50 38.6187 50H38.7563C40.6125 50 41.9375 49.7687 42.6219 49.4531V47.1719C41.8562 47.5156 40.5187 47.7344 38.9344 47.7344H38.7969C34.6281 47.7344 30.7625 45.2719 30.7625 39.4375V38.9469C30.7625 33.7688 34.0688 30.4344 39.0125 30.4344H39.1375C43.9344 30.4344 46.9 33.7156 46.9 37.7031V38.0719C46.9 41.1187 45.8875 42.4156 44.9031 42.4156C44.1781 42.4156 43.6219 41.9531 43.6219 41.1031V34.2594H40.7906V36.0375H40.6969C40.4344 35.1062 39.5469 34.0688 37.7156 34.0688C35.2844 34.0688 33.7813 35.8031 33.7813 38.4438V40.0938C33.7813 42.8812 35.3125 44.575 37.7187 44.575C39.1906 44.575 40.5187 43.8656 40.8875 42.5656H41.0219C41.3906 43.8781 42.95 44.5906 44.5219 44.5906ZM36.8562 39.6281V38.9188C36.8562 37.2125 37.5656 36.4469 38.6469 36.4469C39.575 36.4469 40.4344 37.0469 40.4344 38.6594V39.8062C40.4344 41.5969 39.6438 42.1313 38.6719 42.1313C37.5656 42.1313 36.8562 41.4594 36.8562 39.6313V39.6281Z" fill="white"/>
</svg>
