<svg width="100" height="100" viewBox="0 0 100 100" fill="none" xmlns="http://www.w3.org/2000/svg">
<g clip-path="url(#clip0_167_53)">
<path fill-rule="evenodd" clip-rule="evenodd" d="M99.0875 32.1622C99.3786 32.4525 99.6095 32.7974 99.767 33.177C99.9245 33.5567 100.006 33.9637 100.006 34.3747C100.006 34.7858 99.9245 35.1928 99.767 35.5724C99.6095 35.9521 99.3786 36.2969 99.0875 36.5872L80.3375 55.3372C80.0473 55.6282 79.7024 55.8591 79.3227 56.0167C78.9431 56.1742 78.5361 56.2553 78.125 56.2553C77.714 56.2553 77.307 56.1742 76.9273 56.0167C76.5477 55.8591 76.2028 55.6282 75.9125 55.3372L66.5375 45.9622C65.9507 45.3754 65.6211 44.5796 65.6211 43.7497C65.6211 42.9199 65.9507 42.124 66.5375 41.5372C67.1243 40.9504 67.9202 40.6208 68.75 40.6208C69.5799 40.6208 70.3757 40.9504 70.9625 41.5372L78.125 48.706L94.6625 32.1622C94.9528 31.8712 95.2977 31.6403 95.6773 31.4828C96.057 31.3252 96.464 31.2441 96.875 31.2441C97.2861 31.2441 97.6931 31.3252 98.0727 31.4828C98.4524 31.6403 98.7973 31.8712 99.0875 32.1622Z" fill="#055422"/>
<path d="M6.25 87.5C6.25 87.5 0 87.5 0 81.25C0 75 6.25 56.25 37.5 56.25C68.75 56.25 75 75 75 81.25C75 87.5 68.75 87.5 68.75 87.5H6.25ZM37.5 50C42.4728 50 47.2419 48.0246 50.7583 44.5083C54.2746 40.9919 56.25 36.2228 56.25 31.25C56.25 26.2772 54.2746 21.5081 50.7583 17.9917C47.2419 14.4754 42.4728 12.5 37.5 12.5C32.5272 12.5 27.7581 14.4754 24.2417 17.9917C20.7254 21.5081 18.75 26.2772 18.75 31.25C18.75 36.2228 20.7254 40.9919 24.2417 44.5083C27.7581 48.0246 32.5272 50 37.5 50Z" fill="#055422"/>
</g>
<defs>
<clipPath id="clip0_167_53">
<rect width="100" height="100" fill="white"/>
</clipPath>
</defs>
</svg>
